<svg xmlns="http://www.w3.org/2000/svg" xmlns:xlink="http://www.w3.org/1999/xlink" width="1024" zoomAndPan="magnify" viewBox="0 0 768 767.999994" height="1024" preserveAspectRatio="xMidYMid meet" version="1.0"><defs><g/><clipPath id="d553c9bf7c"><path d="M 16.707031 134.289062 L 751.285156 134.289062 L 751.285156 657.039062 L 16.707031 657.039062 Z M 16.707031 134.289062 " clip-rule="nonzero"/></clipPath><clipPath id="7a1a92a1b2"><path d="M 353 602.308594 L 419 602.308594 L 419 623 L 353 623 Z M 353 602.308594 " clip-rule="nonzero"/></clipPath><clipPath id="1d8d0e3a27"><path d="M 352.148438 615 L 419.648438 615 L 419.648438 644 L 352.148438 644 Z M 352.148438 615 " clip-rule="nonzero"/></clipPath></defs><g clip-path="url(#d553c9bf7c)"><path fill="#bb8317" d="M 727.398438 652.074219 C 707.800781 655.761719 601.171875 657.28125 596.5625 657.339844 C 596.308594 657.339844 590.28125 657.304688 582.953125 656.96875 C 567.824219 656.304688 553.542969 649.238281 543.765625 637.585938 L 383.996094 447.183594 L 224.230469 637.585938 C 214.453125 649.238281 200.171875 656.304688 185.042969 656.96875 C 177.714844 657.304688 171.6875 657.339844 171.433594 657.339844 C 166.824219 657.28125 60.199219 655.761719 40.597656 652.074219 C 16.277344 647.507812 16.597656 627.390625 16.734375 618.800781 L 16.78125 618.230469 C 18.8125 605.457031 25.011719 596.054688 34.515625 591.109375 C 40.167969 588.164062 46.925781 587.140625 53.539062 588.226562 C 60.867188 589.421875 78.214844 592.191406 112.074219 597.316406 C 204.523438 605.464844 222.765625 585.167969 222.9375 584.960938 L 361.273438 420.097656 L 145.039062 162.402344 C 139.34375 155.621094 140.238281 145.472656 147.019531 139.78125 L 149.089844 138.042969 C 155.875 132.351562 166.019531 133.238281 171.710938 140.019531 L 383.996094 393.015625 L 596.28125 140.019531 C 601.972656 133.238281 612.125 132.351562 618.902344 138.042969 L 620.976562 139.78125 C 627.757812 145.472656 628.648438 155.621094 622.957031 162.402344 L 406.722656 420.097656 L 545.058594 584.960938 C 545.230469 585.167969 563.472656 605.464844 655.917969 597.316406 C 689.78125 592.191406 707.128906 589.421875 714.457031 588.226562 C 721.070312 587.140625 727.828125 588.164062 733.480469 591.109375 C 742.988281 596.054688 749.183594 605.457031 751.210938 618.230469 L 751.261719 618.800781 C 751.398438 627.390625 751.71875 647.507812 727.398438 652.074219 " fill-opacity="1" fill-rule="nonzero"/></g><g clip-path="url(#7a1a92a1b2)"><path fill="#000000" d="M 418.726562 612.464844 C 418.726562 612.800781 418.675781 613.128906 418.570312 613.460938 C 418.464844 613.792969 418.308594 614.121094 418.097656 614.449219 C 417.886719 614.773438 417.625 615.097656 417.3125 615.414062 C 417.003906 615.734375 416.640625 616.046875 416.230469 616.351562 C 415.816406 616.660156 415.359375 616.960938 414.851562 617.253906 C 414.34375 617.546875 413.792969 617.832031 413.195312 618.109375 C 412.597656 618.386719 411.957031 618.652344 411.277344 618.910156 C 410.59375 619.167969 409.871094 619.414062 409.113281 619.648438 C 408.351562 619.882812 407.554688 620.105469 406.726562 620.316406 C 405.894531 620.527344 405.03125 620.726562 404.136719 620.910156 C 403.242188 621.097656 402.320312 621.265625 401.375 621.421875 C 400.425781 621.582031 399.453125 621.722656 398.460938 621.851562 C 397.46875 621.976562 396.457031 622.089844 395.429688 622.1875 C 394.398438 622.28125 393.355469 622.363281 392.300781 622.429688 C 391.25 622.492188 390.1875 622.542969 389.117188 622.574219 C 388.046875 622.605469 386.972656 622.621094 385.898438 622.621094 C 384.824219 622.621094 383.75 622.605469 382.679688 622.574219 C 381.609375 622.542969 380.546875 622.492188 379.492188 622.429688 C 378.4375 622.363281 377.398438 622.28125 376.367188 622.1875 C 375.339844 622.089844 374.328125 621.976562 373.335938 621.851562 C 372.339844 621.722656 371.371094 621.582031 370.421875 621.421875 C 369.472656 621.265625 368.550781 621.097656 367.660156 620.910156 C 366.765625 620.726562 365.902344 620.527344 365.070312 620.316406 C 364.238281 620.105469 363.445312 619.882812 362.683594 619.648438 C 361.921875 619.414062 361.203125 619.167969 360.519531 618.910156 C 359.835938 618.652344 359.199219 618.386719 358.601562 618.109375 C 358.003906 617.832031 357.449219 617.546875 356.945312 617.253906 C 356.4375 616.960938 355.976562 616.660156 355.566406 616.351562 C 355.15625 616.046875 354.792969 615.734375 354.480469 615.414062 C 354.167969 615.097656 353.910156 614.773438 353.699219 614.449219 C 353.488281 614.121094 353.332031 613.792969 353.226562 613.460938 C 353.121094 613.128906 353.066406 612.800781 353.066406 612.464844 C 353.066406 612.132812 353.121094 611.800781 353.226562 611.46875 C 353.332031 611.140625 353.488281 610.8125 353.699219 610.484375 C 353.910156 610.160156 354.167969 609.835938 354.480469 609.519531 C 354.792969 609.199219 355.15625 608.886719 355.566406 608.578125 C 355.976562 608.273438 356.4375 607.972656 356.945312 607.679688 C 357.449219 607.386719 358.003906 607.101562 358.601562 606.824219 C 359.199219 606.546875 359.835938 606.28125 360.519531 606.023438 C 361.203125 605.765625 361.921875 605.519531 362.683594 605.285156 C 363.445312 605.050781 364.238281 604.824219 365.070312 604.613281 C 365.902344 604.402344 366.765625 604.207031 367.660156 604.019531 C 368.550781 603.835938 369.472656 603.664062 370.421875 603.507812 C 371.371094 603.351562 372.339844 603.210938 373.335938 603.082031 C 374.328125 602.957031 375.339844 602.84375 376.367188 602.746094 C 377.398438 602.648438 378.4375 602.570312 379.492188 602.503906 C 380.546875 602.441406 381.609375 602.390625 382.679688 602.359375 C 383.75 602.324219 384.824219 602.308594 385.898438 602.308594 C 386.972656 602.308594 388.046875 602.324219 389.117188 602.359375 C 390.1875 602.390625 391.25 602.441406 392.300781 602.503906 C 393.355469 602.570312 394.398438 602.648438 395.429688 602.746094 C 396.457031 602.84375 397.46875 602.957031 398.460938 603.082031 C 399.453125 603.210938 400.425781 603.351562 401.375 603.507812 C 402.320312 603.664062 403.242188 603.835938 404.136719 604.019531 C 405.03125 604.207031 405.894531 604.402344 406.726562 604.613281 C 407.554688 604.824219 408.351562 605.050781 409.113281 605.285156 C 409.871094 605.519531 410.59375 605.765625 411.277344 606.023438 C 411.957031 606.28125 412.597656 606.546875 413.195312 606.824219 C 413.792969 607.101562 414.34375 607.386719 414.851562 607.679688 C 415.359375 607.972656 415.816406 608.273438 416.230469 608.578125 C 416.640625 608.886719 417.003906 609.199219 417.3125 609.519531 C 417.625 609.835938 417.886719 610.160156 418.097656 610.484375 C 418.308594 610.8125 418.464844 611.140625 418.570312 611.46875 C 418.675781 611.800781 418.726562 612.132812 418.726562 612.464844 Z M 418.726562 612.464844 " fill-opacity="1" fill-rule="nonzero"/></g><g clip-path="url(#1d8d0e3a27)"><path fill="#000000" d="M 352.859375 615.195312 C 352.582031 619.398438 352.15625 627.40625 352.421875 631.625 C 353.421875 647.308594 418.375 647.308594 419.371094 631.625 C 419.640625 627.40625 419.214844 619.398438 418.9375 615.195312 C 415.277344 620.15625 401.875 623.835938 385.898438 623.835938 C 369.921875 623.835938 356.519531 620.15625 352.859375 615.195312 Z M 352.859375 615.195312 " fill-opacity="1" fill-rule="evenodd"/></g><g fill="#004aad" fill-opacity="1"><g transform="translate(18.058596, 512.310259)"><g><path d="M 234 -164.09375 L 234 -210 L 135.296875 -210 L 135.296875 -164.09375 L 148.796875 -158.09375 L 148.796875 -124.203125 L 98.09375 -124.203125 L 98.09375 -158.09375 L 111.90625 -164.09375 L 111.90625 -210 L 13.203125 -210 L 13.203125 -164.09375 L 36 -158.09375 L 36 -51.59375 L 13.203125 -45.59375 L 13.203125 0 L 111.90625 0 L 111.90625 -45.59375 L 98.09375 -51.59375 L 98.09375 -88.203125 L 148.796875 -88.203125 L 148.796875 -51.59375 L 135.296875 -45.59375 L 135.296875 0 L 234 0 L 234 -45.59375 L 211.203125 -51.59375 L 211.203125 -158.09375 Z M 234 -164.09375 "/></g></g></g><g fill="#004aad" fill-opacity="1"><g transform="translate(516.365699, 512.310259)"><g><path d="M 210.90625 -173.40625 L 167.40625 -210 L 13.203125 -210 L 13.203125 -164.09375 L 36 -158.09375 L 36 -51.59375 L 13.203125 -45.59375 L 13.203125 0 L 120.90625 0 L 120.90625 -45.296875 L 98.09375 -51.296875 L 98.09375 -72.296875 L 167.40625 -72.296875 L 210.90625 -108.59375 Z M 141 -158.09375 L 148.796875 -151.796875 L 148.796875 -130.796875 L 141 -124.203125 L 98.09375 -124.203125 L 98.09375 -158.09375 Z M 141 -158.09375 "/></g></g></g></svg>